# 3ds Max Wavefront OBJ Exporter v0.97b - (c)2007 guruware
# File Created: 31.10.2015 20:07:34

mtllib Ladder_Stange_UVMAPPEdMAX.mtl

#
# object Ladder_Stange_Retopo_ZBrush_defualt_group
#

v  65.5920 50.0609 73.0905
v  65.7193 49.4467 73.3208
v  65.4162 49.2581 72.8371
v  65.3265 49.9235 72.7009
v  64.7276 49.3000 72.8635
v  64.8549 49.9390 72.7153
v  65.1242 50.1348 73.0960
v  64.4853 49.4982 73.3132
v  64.6515 50.1270 73.1489
v  64.6730 49.6612 73.7273
v  64.8178 50.2276 73.4006
v  65.1038 49.6959 73.9026
v  65.0336 50.2546 73.5192
v  65.5367 49.6550 73.7128
v  65.3832 50.2237 73.4305
v  64.5136 -4.2258 92.8244
v  64.7438 -4.0208 93.2930
v  65.3091 -4.1261 93.3792
v  65.1103 -4.4743 92.9948
v  65.6756 -4.0753 92.9489
v  65.5335 -4.4270 92.5650
v  64.9670 -4.3914 92.3178
# 22 vertices

vn 0.7725 0.5820 -0.2539
vn 0.9929 0.0733 -0.0932
vn 0.4747 -0.2195 -0.8523
vn 0.3462 0.3697 -0.8623
vn -0.5552 -0.1896 -0.8098
vn -0.3858 0.3898 -0.8362
vn 0.0360 0.9264 -0.3748
vn -0.9923 0.0974 -0.0770
vn -0.7067 0.6740 -0.2151
vn -0.6921 0.3575 0.6271
vn -0.4430 0.8683 0.2232
vn 0.0177 0.4561 0.8898
vn -0.0786 0.8890 0.4512
vn 0.7119 0.3672 0.5986
vn 0.4565 0.8421 0.2870
vn -0.8746 -0.4822 0.0511
vn -0.5459 -0.1368 0.8266
vn 0.3237 -0.2760 0.9050
vn -0.0152 -0.9321 0.3618
vn 0.9165 -0.2364 0.3227
vn 0.6276 -0.7214 -0.2927
vn -0.2417 -0.7002 -0.6717
# 22 vertex normals

vt 0.9829 0.8832 0.0000
vt 0.9760 0.9181 0.0000
vt 0.9725 0.8675 0.0000
vt 0.9796 0.8601 0.0000
vt 0.9717 0.8093 0.0000
vt 0.9790 0.8321 0.0000
vt 0.9855 0.8497 0.0000
vt 0.9734 0.7653 0.0000
vt 0.9821 0.8123 0.0000
vt 0.9761 0.7292 0.0000
vt 0.9864 0.8178 0.0000
vt 0.9781 0.6938 0.0000
vt 0.9908 0.8407 0.0000
vt 0.9866 0.9913 0.0000
vt 0.9815 0.9561 0.0000
vt 0.9876 0.8783 0.0000
vt 0.0229 0.7415 0.0000
vt 0.0278 0.9811 0.0000
vt 0.0279 0.9360 0.0000
vt 0.0183 0.8462 0.0000
vt 0.0178 0.6980 0.0000
vt 0.0315 0.8930 0.0000
vt 0.0281 0.8506 0.0000
vt 0.0277 0.7998 0.0000
# 24 texture coords

g Ladder_Stange_Retopo_ZBrush_defualt_group
usemtl defaultMat
s 1
f 1/1/1 2/2/2 3/3/3 4/4/4 
f 4/4/4 3/3/3 5/5/5 6/6/6 
f 4/4/4 6/6/6 7/7/7 
f 7/7/7 1/1/1 4/4/4 
f 6/6/6 5/5/5 8/8/8 9/9/9 
f 6/6/6 9/9/9 7/7/7 
f 9/9/9 8/8/8 10/10/10 11/11/11 
f 9/9/9 11/11/11 7/7/7 
f 11/11/11 10/10/10 12/12/12 13/13/13 
f 11/11/11 13/13/13 7/7/7 
f 13/13/13 12/14/12 14/15/14 15/16/15 
f 13/13/13 15/16/15 7/7/7 
f 15/16/15 14/15/14 2/2/2 1/1/1 
f 15/16/15 1/1/1 7/7/7 
f 16/17/16 10/10/10 8/8/8 
f 12/12/12 10/10/10 16/17/16 
f 17/18/17 18/19/18 12/14/12 
f 19/20/19 18/19/18 17/18/17 
f 17/21/17 12/12/12 16/17/16 
f 17/21/17 16/17/16 19/20/19 
f 14/15/14 12/14/12 18/19/18 
f 20/22/20 14/15/14 18/19/18 
f 19/20/19 20/22/20 18/19/18 
f 20/22/20 2/2/2 14/15/14 
f 3/3/3 2/2/2 20/22/20 
f 21/23/21 3/3/3 20/22/20 
f 19/20/19 21/23/21 20/22/20 
f 5/5/5 3/3/3 21/23/21 
f 22/24/22 5/5/5 21/23/21 
f 19/20/19 22/24/22 21/23/21 
f 8/8/8 5/5/5 22/24/22 
f 16/17/16 8/8/8 22/24/22 
f 19/20/19 16/17/16 22/24/22 
# 7 polygons - 26 triangles

