# 3ds Max Wavefront OBJ Exporter v0.97b - (c)2007 guruware
# File Created: 31.10.2015 03:08:20

mtllib Wooden_Planks_Roof_2_UVEDMAXFILE.mtl

#
# object Plank_roof_2_remesh_Plank_roof_2_remesh_Group21858
#

v  16.3868 17.5781 -46.6208
v  16.6489 17.6297 -46.6868
v  16.6932 17.2074 -46.4020
v  16.4025 17.2428 -46.3717
v  21.0542 17.6681 -46.6851
v  21.2251 17.2635 -46.4550
v  20.8691 17.1935 -46.4160
v  20.7889 17.6140 -46.6454
v  16.5747 35.4258 -17.6178
v  17.0386 35.4649 -17.4750
v  16.9570 35.8474 -17.7163
v  16.3917 35.7265 -17.6606
v  16.5785 35.1760 -18.0518
v  17.0015 35.1507 -17.8878
v  16.5344 35.6346 -18.2579
v  21.2237 35.7767 -17.7059
v  20.8540 35.7075 -17.7800
v  20.8923 35.3347 -17.5341
v  21.2287 35.3691 -17.6414
v  21.2317 35.4579 -18.1989
v  20.8690 35.4415 -18.2454
v  21.2303 35.1108 -17.9705
v  20.8268 35.0145 -17.9683
v  20.4386 35.3366 -17.4653
v  20.4171 34.9893 -17.9409
v  20.1448 34.3328 -18.6995
v  20.6533 34.4224 -18.8493
v  21.1367 34.5059 -18.8832
v  21.2325 34.9054 -19.1172
v  20.5850 33.7983 -19.8151
v  21.1206 33.8530 -19.9240
v  21.2333 34.2748 -20.1978
v  20.6952 34.2038 -20.1830
v  20.7233 34.8498 -19.1243
v  18.7985 34.2233 -19.8921
v  19.4224 34.1274 -19.9344
v  19.2558 28.9956 -27.9654
v  17.7434 29.1202 -27.8304
v  17.3711 29.3377 -27.9382
v  18.3267 34.2936 -19.8528
v  16.9755 29.2107 -27.7661
v  17.7579 34.4265 -19.7813
v  17.1365 28.7636 -27.5110
v  16.7048 28.8429 -27.5268
v  16.7035 24.7479 -34.1895
v  17.1904 24.7333 -34.2388
v  17.9153 24.6293 -34.2265
v  17.5360 28.7931 -27.5803
v  18.3678 24.6280 -34.3363
v  17.9747 28.6823 -27.5549
v  19.5747 24.2011 -34.8947
v  19.3579 24.4772 -34.4815
v  19.5161 21.3699 -39.2002
v  20.1456 21.4587 -39.2361
v  20.6276 21.3607 -39.1692
v  19.9184 24.1781 -34.9177
v  21.0552 21.3924 -39.1943
v  20.1342 24.3595 -34.4809
v  19.6455 21.8746 -39.3471
v  20.7731 21.8738 -39.4021
v  20.3307 17.6100 -46.6124
v  19.3800 17.5689 -46.6526
v  19.0498 21.9337 -39.3758
v  18.8424 17.5962 -46.6089
v  18.6233 21.8529 -39.3506
v  17.8157 17.6738 -46.6975
v  18.5210 17.6081 -46.6473
v  18.4925 17.1636 -46.3691
v  17.8387 17.2314 -46.4335
v  17.0390 17.2635 -46.4244
v  17.0043 17.6755 -46.7184
v  17.3111 21.9482 -39.4303
v  17.7878 21.9327 -39.4195
v  18.2341 22.0533 -39.4904
v  19.3620 24.9610 -34.6574
v  20.1068 24.8175 -34.7158
v  20.6759 24.8382 -34.7533
v  20.0501 21.9517 -39.2807
v  20.8272 24.4082 -34.4524
v  21.2337 21.7080 -39.3392
v  21.2337 24.5511 -34.5260
v  19.7372 28.7100 -27.7286
v  19.1488 28.5640 -27.6625
v  18.6268 28.5882 -27.6010
v  18.7591 24.5353 -34.3401
v  16.3861 29.0443 -27.6351
v  16.4357 34.1487 -19.4931
v  16.3865 34.6208 -19.7929
v  17.0293 34.5559 -19.7820
v  16.5400 29.3068 -27.8083
v  18.9208 34.9002 -18.9326
v  19.4877 34.8674 -19.0265
v  20.1575 34.7302 -19.0341
v  20.0869 34.0653 -20.0473
v  19.5606 35.4414 -18.2863
v  20.4462 35.4144 -18.2467
v  19.5467 35.7194 -17.7836
v  20.4633 35.7659 -17.7540
v  19.5620 35.3456 -17.4669
v  19.0664 35.7327 -17.8007
v  19.0161 35.3831 -17.5225
v  19.0111 35.0335 -17.8808
v  19.5541 35.0519 -17.9251
v  18.8908 34.5518 -18.5354
v  19.4914 34.5020 -18.6755
v  18.7945 33.8056 -19.5534
v  19.4154 33.7075 -19.6253
v  20.0136 33.6660 -19.6979
v  21.2337 29.2755 -28.1507
v  20.7539 29.2861 -28.1461
v  20.0538 29.2089 -28.0688
v  18.2247 29.0855 -27.8691
v  18.5290 25.1013 -34.6393
v  18.1168 25.0022 -34.5692
v  17.4654 25.1720 -34.5227
v  16.8583 25.1912 -34.4387
v  16.9413 21.6026 -39.2329
v  17.4036 21.4446 -39.1667
v  17.8945 21.4914 -39.2101
v  18.3466 21.5298 -39.2154
v  19.3839 17.1666 -46.3346
v  20.3262 17.1731 -46.3826
v  18.8436 17.1758 -46.3539
v  16.4766 21.7205 -39.2920
v  16.3864 22.0949 -39.5274
v  16.8432 22.0616 -39.5041
v  18.8832 24.9521 -34.5448
v  21.1242 24.8886 -34.7430
v  21.1609 28.8773 -27.9010
v  20.6523 28.8542 -27.8904
v  18.3397 33.9037 -19.5715
v  17.7995 33.9806 -19.5067
v  16.9961 34.1186 -19.5189
v  17.0413 35.2547 -18.7087
v  17.7623 35.1727 -18.7915
v  18.4324 34.9959 -18.8919
v  17.8031 35.5654 -18.1754
v  18.6485 35.4793 -18.1755
v  19.0554 35.4336 -18.2111
v  18.6465 35.8594 -17.7332
v  17.7562 35.8577 -17.7382
v  17.8063 35.4396 -17.4607
v  18.5899 35.3967 -17.5071
v  17.8574 35.1674 -17.8995
v  18.5745 35.0644 -17.8791
v  17.8251 34.6972 -18.5125
v  18.4117 34.6391 -18.5137
v  18.8240 29.0634 -27.9281
v  16.4346 25.2259 -34.4302
v  16.3864 24.8617 -34.2312
v  18.8157 21.3888 -39.1439
v  17.0045 34.8101 -18.4831
v  16.4064 34.8546 -18.4550
v  16.5219 35.2480 -18.7454
v  16.9944 35.5935 -18.1512
v  20.4496 21.9143 -39.2850
# 156 vertices

vn -0.6869 0.0875 -0.7215
vn -0.1910 0.2016 -0.9607
vn 0.0006 -0.9789 -0.2043
vn -0.6237 -0.7738 -0.1111
vn 0.3819 0.3312 -0.8628
vn 0.7273 -0.6191 -0.2964
vn 0.0839 -0.9651 -0.2479
vn -0.1263 0.2224 -0.9667
vn -0.5746 -0.3881 0.7205
vn -0.1203 -0.1660 0.9787
vn -0.1554 0.9557 0.2499
vn -0.7994 0.4391 0.4100
vn -0.7828 -0.4549 0.4247
vn -0.0759 -0.8267 0.5575
vn -0.6061 0.7160 -0.3464
vn 0.5089 0.8010 0.3153
vn -0.0454 0.9840 0.1725
vn 0.1666 -0.2434 0.9555
vn 0.7239 -0.2675 0.6359
vn 0.7278 0.5642 -0.3898
vn -0.0303 0.8357 -0.5483
vn 0.7716 -0.5311 0.3501
vn 0.1624 -0.8059 0.5693
vn 0.0696 -0.1715 0.9827
vn 0.0328 -0.7883 0.6144
vn 0.0489 -0.8193 0.5713
vn 0.2378 -0.8253 0.5122
vn 0.6989 -0.6099 0.3735
vn 0.7491 0.5700 -0.3375
vn 0.2396 -0.8256 0.5109
vn 0.6951 -0.6111 0.3786
vn 0.7361 0.5760 -0.3554
vn -0.2069 0.8332 -0.5127
vn -0.1715 0.8420 -0.5114
vn 0.0865 0.8240 -0.5600
vn 0.0396 0.8283 -0.5588
vn -0.1069 0.8434 -0.5265
vn 0.2976 0.8014 -0.5188
vn 0.0377 0.8381 -0.5442
vn 0.0985 0.8219 -0.5611
vn -0.1037 0.8423 -0.5290
vn 0.1197 0.8185 -0.5620
vn -0.0102 -0.8396 0.5431
vn -0.3811 -0.7796 0.4970
vn -0.1681 -0.8406 0.5149
vn -0.0522 -0.8510 0.5225
vn -0.0020 -0.8515 0.5243
vn -0.0396 -0.8391 0.5426
vn -0.0381 -0.8492 0.5267
vn -0.1611 -0.8349 0.5262
vn -0.0433 -0.8517 0.5223
vn -0.0313 -0.8467 0.5311
vn 0.0833 -0.8472 0.5248
vn -0.0506 -0.8565 0.5137
vn -0.0686 -0.8559 0.5126
vn -0.1422 -0.8628 0.4851
vn 0.5633 -0.7044 0.4320
vn -0.0517 -0.8483 0.5270
vn 0.0337 0.8474 -0.5299
vn 0.1707 0.8574 -0.4856
vn -0.0233 0.2868 -0.9577
vn -0.0214 0.1855 -0.9824
vn -0.0441 0.8484 -0.5275
vn 0.0369 0.2533 -0.9667
vn 0.1930 0.8329 -0.5186
vn 0.0449 0.2495 -0.9673
vn 0.1021 0.2116 -0.9720
vn -0.0224 -0.9765 -0.2145
vn -0.0505 -0.9603 -0.2742
vn 0.0638 -0.9677 -0.2439
vn -0.0359 0.2298 -0.9726
vn 0.1559 0.8429 -0.5149
vn -0.1282 0.8489 -0.5128
vn 0.1184 0.8480 -0.5166
vn -0.0059 0.8495 -0.5275
vn 0.0168 0.8424 -0.5386
vn -0.0743 0.8370 -0.5422
vn -0.0190 0.8085 -0.5882
vn 0.2195 -0.8256 0.5198
vn 0.9369 0.3174 -0.1469
vn 0.8875 -0.4106 0.2092
vn 0.2370 -0.8250 0.5130
vn 0.1373 -0.8436 0.5191
vn -0.0323 -0.8487 0.5279
vn -0.0750 -0.8454 0.5288
vn -0.9711 -0.1951 0.1373
vn -0.6918 -0.5866 0.4211
vn -0.7081 0.6116 -0.3530
vn 0.1115 0.8281 -0.5494
vn -0.4386 0.7647 -0.4721
vn 0.0384 0.8003 -0.5983
vn 0.0430 0.7828 -0.6208
vn -0.0588 0.8082 -0.5860
vn -0.1530 0.8389 -0.5224
vn -0.0098 0.8270 -0.5621
vn -0.0024 0.8006 -0.5991
vn -0.0215 0.9873 0.1575
vn 0.0633 0.9812 0.1824
vn -0.0417 -0.1417 0.9890
vn 0.1606 0.9823 0.0966
vn 0.0050 -0.0938 0.9956
vn -0.0054 -0.7831 0.6219
vn -0.0012 -0.8167 0.5771
vn -0.0214 -0.8078 0.5891
vn -0.0519 -0.8012 0.5962
vn -0.1131 -0.8103 0.5751
vn -0.0219 -0.8062 0.5912
vn 0.1374 -0.8261 0.5465
vn 0.7589 0.5496 -0.3492
vn -0.0683 0.8399 -0.5384
vn -0.2158 0.8213 -0.5281
vn -0.0640 0.2811 -0.9575
vn 0.1011 0.8473 -0.5215
vn -0.0627 0.8458 -0.5298
vn 0.0680 0.8445 -0.5313
vn 0.0123 0.8494 -0.5276
vn -0.3027 -0.8064 0.5081
vn -0.1039 -0.8401 0.5324
vn 0.0982 -0.8460 0.5241
vn -0.1220 -0.8468 0.5178
vn -0.0044 -0.9866 -0.1632
vn 0.0292 -0.9682 -0.2486
vn -0.0040 -0.9747 -0.2235
vn -0.7354 -0.5742 0.3598
vn -0.7447 0.5674 -0.3514
vn 0.1795 0.8370 -0.5170
vn 0.1537 0.8415 -0.5179
vn 0.5835 0.6667 -0.4638
vn 0.6713 -0.6243 0.3995
vn 0.1367 -0.8358 0.5317
vn -0.1254 -0.8208 0.5574
vn -0.0973 -0.8258 0.5556
vn -0.0834 -0.8311 0.5499
vn 0.0388 0.8415 -0.5388
vn 0.0757 0.8199 -0.5675
vn 0.1038 0.8049 -0.5843
vn 0.0406 0.8259 -0.5624
vn 0.0558 0.7885 -0.6125
vn 0.0044 0.8113 -0.5846
vn 0.1396 0.9680 0.2084
vn 0.0041 0.9810 0.1942
vn -0.0075 -0.2196 0.9756
vn 0.0056 -0.2114 0.9774
vn -0.0597 -0.8147 0.5768
vn -0.0890 -0.7723 0.6290
vn -0.0900 -0.8016 0.5911
vn -0.1008 -0.8097 0.5781
vn 0.1190 0.8859 0.4483
vn -0.6460 0.6495 -0.4010
vn -0.8558 -0.4415 0.2697
vn -0.1490 -0.8417 0.5189
vn -0.0517 -0.8364 0.5457
vn -0.8204 -0.4041 0.4046
vn -0.6365 0.6766 -0.3704
vn 0.0203 0.8738 -0.4858
vn 0.0355 0.9356 -0.3513
# 156 vertex normals

vt 0.9961 0.7199 0.0000
vt 0.9961 0.7276 0.0000
vt 0.9825 0.7246 0.0000
vt 0.9844 0.7169 0.0000
vt 0.9657 0.8471 0.0000
vt 0.9589 0.8373 0.0000
vt 0.9620 0.8310 0.0000
vt 0.9718 0.8383 0.0000
vt 0.0268 0.7024 0.0000
vt 0.0260 0.7146 0.0000
vt 0.0136 0.7125 0.0000
vt 0.0193 0.6965 0.0000
vt 0.0405 0.6986 0.0000
vt 0.0394 0.7111 0.0000
vt 0.0337 0.6861 0.0000
vt 0.0331 0.8286 0.0000
vt 0.0270 0.8176 0.0000
vt 0.0376 0.8133 0.0000
vt 0.0406 0.8208 0.0000
vt 0.0501 0.8310 0.0000
vt 0.0506 0.8401 0.0000
vt 0.0356 0.8389 0.0000
vt 0.0509 0.8209 0.0000
vt 0.0522 0.8106 0.0000
vt 0.0357 0.8024 0.0000
vt 0.0514 0.8002 0.0000
vt 0.0778 0.7921 0.0000
vt 0.0802 0.8061 0.0000
vt 0.0798 0.8192 0.0000
vt 0.0790 0.8317 0.0000
vt 0.1109 0.8037 0.0000
vt 0.1127 0.8186 0.0000
vt 0.1125 0.8326 0.0000
vt 0.1125 0.8472 0.0000
vt 0.0793 0.8452 0.0000
vt 0.1020 0.8989 0.0000
vt 0.1059 0.8822 0.0000
vt 0.3665 0.8908 0.0000
vt 0.3606 0.9322 0.0000
vt 0.3596 0.9443 0.0000
vt 0.0987 0.9116 0.0000
vt 0.3571 0.9564 0.0000
vt 0.0933 0.9269 0.0000
vt 0.3617 0.7084 0.0000
vt 0.3609 0.6963 0.0000
vt 0.5781 0.7013 0.0000
vt 0.5793 0.7148 0.0000
vt 0.5800 0.7351 0.0000
vt 0.3626 0.7197 0.0000
vt 0.5823 0.7478 0.0000
vt 0.3636 0.7322 0.0000
vt 0.6006 0.7820 0.0000
vt 0.5872 0.7757 0.0000
vt 0.7425 0.7834 0.0000
vt 0.7415 0.8014 0.0000
vt 0.7409 0.8154 0.0000
vt 0.6013 0.7915 0.0000
vt 0.7407 0.8277 0.0000
vt 0.5883 0.7978 0.0000
vt 0.7358 0.8848 0.0000
vt 0.7380 0.8527 0.0000
vt 0.9655 0.8557 0.0000
vt 0.9649 0.8686 0.0000
vt 0.9672 0.8931 0.0000
vt 0.7355 0.9016 0.0000
vt 0.9665 0.9070 0.0000
vt 0.7357 0.9138 0.0000
vt 0.9900 0.7571 0.0000
vt 0.9858 0.7750 0.0000
vt 0.9719 0.7716 0.0000
vt 0.9761 0.7548 0.0000
vt 0.9805 0.7337 0.0000
vt 0.9944 0.7369 0.0000
vt 0.9695 0.9331 0.0000
vt 0.9725 0.9537 0.0000
vt 0.7365 0.9528 0.0000
vt 0.7362 0.9396 0.0000
vt 0.7361 0.9266 0.0000
vt 0.9678 0.9151 0.0000
vt 0.5816 0.8906 0.0000
vt 0.5853 0.8696 0.0000
vt 0.5859 0.8536 0.0000
vt 0.7335 0.8731 0.0000
vt 0.5862 0.8172 0.0000
vt 0.7397 0.8387 0.0000
vt 0.5852 0.8294 0.0000
vt 0.3671 0.7817 0.0000
vt 0.3678 0.7648 0.0000
vt 0.3661 0.7503 0.0000
vt 0.5835 0.7589 0.0000
vt 0.3606 0.6855 0.0000
vt 0.0894 0.6904 0.0000
vt 0.0872 0.6753 0.0000
vt 0.3559 0.9783 0.0000
vt 0.0853 0.9641 0.0000
vt 0.0886 0.9466 0.0000
vt 0.3564 0.9687 0.0000
vt 0.0703 0.8930 0.0000
vt 0.0742 0.8782 0.0000
vt 0.0782 0.8606 0.0000
vt 0.1105 0.8644 0.0000
vt 0.0491 0.8737 0.0000
vt 0.0503 0.8509 0.0000
vt 0.0335 0.8724 0.0000
vt 0.0336 0.8489 0.0000
vt 0.0220 0.8065 0.0000
vt 0.0203 0.7811 0.0000
vt 0.0335 0.7801 0.0000
vt 0.0197 0.7685 0.0000
vt 0.0321 0.7659 0.0000
vt 0.0462 0.7642 0.0000
vt 0.0483 0.7782 0.0000
vt 0.0684 0.7592 0.0000
vt 0.0734 0.7748 0.0000
vt 0.1027 0.7546 0.0000
vt 0.1067 0.7714 0.0000
vt 0.1097 0.7875 0.0000
vt 0.3676 0.8351 0.0000
vt 0.3672 0.8484 0.0000
vt 0.3662 0.8679 0.0000
vt 0.3624 0.9190 0.0000
vt 0.5788 0.9151 0.0000
vt 0.5783 0.9270 0.0000
vt 0.5744 0.9451 0.0000
vt 0.5719 0.9617 0.0000
vt 0.7435 0.7097 0.0000
vt 0.7436 0.7234 0.0000
vt 0.7432 0.7372 0.0000
vt 0.7420 0.7498 0.0000
vt 0.9680 0.7945 0.0000
vt 0.9650 0.8187 0.0000
vt 0.9820 0.7976 0.0000
vt 0.9770 0.8241 0.0000
vt 0.9704 0.7806 0.0000
vt 0.9838 0.7832 0.0000
vt 0.9745 0.9700 0.0000
vt 0.9767 0.9809 0.0000
vt 0.7376 0.9910 0.0000
vt 0.7367 0.9787 0.0000
vt 0.7366 0.9662 0.0000
vt 0.9739 0.9629 0.0000
vt 0.5791 0.9041 0.0000
vt 0.5848 0.8410 0.0000
vt 0.3685 0.8219 0.0000
vt 0.3686 0.8077 0.0000
vt 0.1008 0.7421 0.0000
vt 0.0969 0.7276 0.0000
vt 0.0926 0.7057 0.0000
vt 0.0525 0.9420 0.0000
vt 0.0589 0.9231 0.0000
vt 0.0665 0.9058 0.0000
vt 0.0394 0.9188 0.0000
vt 0.0438 0.8970 0.0000
vt 0.0465 0.8867 0.0000
vt 0.0282 0.8945 0.0000
vt 0.0327 0.8844 0.0000
vt 0.0170 0.7577 0.0000
vt 0.0142 0.7343 0.0000
vt 0.0279 0.7344 0.0000
vt 0.0310 0.7546 0.0000
vt 0.0251 0.9169 0.0000
vt 0.0421 0.7340 0.0000
vt 0.0448 0.7529 0.0000
vt 0.0632 0.7311 0.0000
vt 0.0655 0.7466 0.0000
vt 0.3645 0.9026 0.0000
vt 0.5708 0.9733 0.0000
vt 0.5708 0.9848 0.0000
vt 0.7438 0.6964 0.0000
vt 0.5778 0.6920 0.0000
vt 0.7417 0.7637 0.0000
vt 0.0583 0.7095 0.0000
vt 0.0545 0.6941 0.0000
vt 0.0513 0.6810 0.0000
vt 0.0508 0.9562 0.0000
vt 0.0329 0.9528 0.0000
vt 0.0341 0.9400 0.0000
vt 0.0155 0.9514 0.0000
vt 0.0204 0.9367 0.0000
vt 0.7344 0.8618 0.0000
# 180 texture coords

g Plank_roof_2_remesh_Plank_roof_2_remesh_Group21858
usemtl defaultMat
s 1
f 1/1/1 2/2/2 3/3/3 4/4/4 
f 5/5/5 6/6/6 7/7/7 8/8/8 
f 9/9/9 10/10/10 11/11/11 12/12/12 
f 9/9/9 13/13/13 14/14/14 10/10/10 
f 9/9/9 12/12/12 15/15/15 13/13/13 
f 16/16/16 17/17/17 18/18/18 19/19/19 
f 16/16/16 20/20/20 21/21/21 17/22/17 
f 16/16/16 19/19/19 22/23/22 20/20/20 
f 19/19/19 18/18/18 23/24/23 22/23/22 
f 23/24/23 18/18/18 24/25/24 25/26/25 
f 23/24/23 25/26/25 26/27/26 27/28/27 
f 23/24/23 27/28/27 28/29/28 22/23/22 
f 28/29/28 29/30/29 20/20/20 22/23/22 
f 28/29/28 27/28/27 30/31/30 31/32/31 
f 28/29/28 31/32/31 32/33/32 29/30/29 
f 32/33/32 33/34/33 34/35/34 29/30/29 
f 35/36/35 36/37/36 37/38/37 38/39/38 
f 35/36/35 38/39/38 39/40/39 40/41/40 
f 39/40/39 41/42/41 42/43/42 40/41/40 
f 43/44/43 44/45/44 45/46/45 46/47/46 
f 43/44/43 46/47/46 47/48/47 48/49/48 
f 47/48/47 49/50/49 50/51/50 48/49/48 
f 51/52/51 52/53/52 53/54/53 54/55/54 
f 51/52/51 54/55/54 55/56/55 56/57/56 
f 55/56/55 57/58/57 58/59/58 56/57/56 
f 59/60/59 60/61/60 8/62/8 61/63/61 
f 59/60/59 61/63/61 62/64/62 63/65/63 
f 62/64/62 64/66/64 65/67/65 63/65/63 
f 66/68/66 67/69/67 68/70/68 69/71/69 
f 66/68/66 69/71/69 70/72/70 71/73/71 
f 66/74/66 71/75/71 72/76/72 73/77/73 
f 66/74/66 73/77/73 74/78/74 67/79/67 
f 74/78/74 65/67/65 64/66/64 67/79/67 
f 59/60/59 63/65/63 75/80/75 76/81/76 
f 59/60/59 76/81/76 77/82/77 78/83/78 
f 79/84/79 58/59/58 57/58/57 80/85/80 
f 79/84/79 80/85/80 60/61/60 81/86/81 
f 52/53/52 58/59/58 82/87/82 83/88/83 
f 52/53/52 83/88/83 84/89/84 85/90/85 
f 84/89/84 50/51/50 49/50/49 85/90/85 
f 86/91/86 44/45/44 87/92/87 88/93/88 
f 86/94/86 88/95/88 89/96/89 90/97/90 
f 89/96/89 42/43/42 41/42/41 90/97/90 
f 36/37/36 35/36/35 91/98/91 92/99/92 
f 36/37/36 92/99/92 93/100/93 94/101/94 
f 93/100/93 92/99/92 95/102/95 96/103/96 
f 93/100/93 96/103/96 21/21/21 34/35/34 
f 93/100/93 34/35/34 33/34/33 94/101/94 
f 96/103/96 95/102/95 97/104/97 98/105/98 
f 96/103/96 98/105/98 17/22/17 21/21/21 
f 98/106/98 97/107/97 99/108/99 24/25/24 
f 98/106/98 24/25/24 18/18/18 17/17/17 
f 99/108/99 97/107/97 100/109/100 101/110/101 
f 99/108/99 101/110/101 102/111/102 103/112/103 
f 99/108/99 103/112/103 25/26/25 24/25/24 
f 103/112/103 102/111/102 104/113/104 105/114/105 
f 103/112/103 105/114/105 26/27/26 25/26/25 
f 105/114/105 104/113/104 106/115/106 107/116/107 
f 105/114/105 107/116/107 108/117/108 26/27/26 
f 108/117/108 30/31/30 27/28/27 26/27/26 
f 33/34/33 32/33/32 109/118/109 110/119/110 
f 33/34/33 110/119/110 111/120/111 94/101/94 
f 111/120/111 37/38/37 36/37/36 94/101/94 
f 38/39/38 112/121/112 113/122/113 114/123/114 
f 38/39/38 114/123/114 115/124/115 39/40/39 
f 115/124/115 116/125/116 41/42/41 39/40/39 
f 46/47/46 45/46/45 117/126/117 118/127/118 
f 46/47/46 118/127/118 119/128/119 47/48/47 
f 119/128/119 120/129/120 49/50/49 47/48/47 
f 54/55/54 53/54/53 121/130/121 122/131/122 
f 54/55/54 122/131/122 7/7/7 55/56/55 
f 7/7/7 6/6/6 57/58/57 55/56/55 
f 5/5/5 8/62/8 60/61/60 80/85/80 
f 5/5/5 80/85/80 57/58/57 6/6/6 
f 62/132/62 61/133/61 122/131/122 121/130/121 
f 62/132/62 121/130/121 123/134/123 64/135/64 
f 123/134/123 68/70/68 67/69/67 64/135/64 
f 1/136/1 4/137/4 124/138/124 125/139/125 
f 1/136/1 125/139/125 126/140/126 2/141/2 
f 126/140/126 72/76/72 71/75/71 2/141/2 
f 74/78/74 73/77/73 114/123/114 113/122/113 
f 74/78/74 113/122/113 127/142/127 65/67/65 
f 127/142/127 75/80/75 63/65/63 65/67/65 
f 81/86/81 128/143/128 109/118/109 129/144/129 
f 81/86/81 129/144/129 130/145/130 79/84/79 
f 130/145/130 82/87/82 58/59/58 79/84/79 
f 48/49/48 50/51/50 131/146/131 132/147/132 
f 48/49/48 132/147/132 133/148/133 43/44/43 
f 133/148/133 87/92/87 44/45/44 43/44/43 
f 42/43/42 89/96/89 134/149/134 135/150/135 
f 42/43/42 135/150/135 136/151/136 40/41/40 
f 136/151/136 135/150/135 137/152/137 138/153/138 
f 136/151/136 138/153/138 139/154/139 91/98/91 
f 136/151/136 91/98/91 35/36/35 40/41/40 
f 139/154/139 138/153/138 140/155/140 100/156/100 
f 139/154/139 100/156/100 97/104/97 95/102/95 
f 139/154/139 95/102/95 92/99/92 91/98/91 
f 140/157/140 141/158/141 142/159/142 143/160/143 
f 140/157/140 143/160/143 101/110/101 100/109/100 
f 140/155/140 138/153/138 137/152/137 141/161/141 
f 143/160/143 142/159/142 144/162/144 145/163/145 
f 143/160/143 145/163/145 102/111/102 101/110/101 
f 145/163/145 144/162/144 146/164/146 147/165/147 
f 145/163/145 147/165/147 104/113/104 102/111/102 
f 147/165/147 146/164/146 132/147/132 131/146/131 
f 147/165/147 131/146/131 106/115/106 104/113/104 
f 30/31/30 108/117/108 82/87/82 130/145/130 
f 30/31/30 130/145/130 129/144/129 31/32/31 
f 129/144/129 109/118/109 32/33/32 31/32/31 
f 37/38/37 111/120/111 76/81/76 75/80/75 
f 37/38/37 75/80/75 127/142/127 148/166/148 
f 127/142/127 113/122/113 112/121/112 148/166/148 
f 149/167/149 116/125/116 126/140/126 125/139/125 
f 149/167/149 125/139/125 124/138/124 150/168/150 
f 124/169/124 117/126/117 45/46/45 150/170/150 
f 120/129/120 119/128/119 69/71/69 68/70/68 
f 120/129/120 68/70/68 123/134/123 151/171/151 
f 123/134/123 121/130/121 53/54/53 151/171/151 
f 69/71/69 119/128/119 118/127/118 70/72/70 
f 118/127/118 117/126/117 3/3/3 70/72/70 
f 117/126/117 124/169/124 4/4/4 3/3/3 
f 72/76/72 126/140/126 116/125/116 115/124/115 
f 72/76/72 115/124/115 114/123/114 73/77/73 
f 76/81/76 111/120/111 110/119/110 77/82/77 
f 110/119/110 109/118/109 128/143/128 77/82/77 
f 83/88/83 82/87/82 108/117/108 107/116/107 
f 83/88/83 107/116/107 106/115/106 84/89/84 
f 106/115/106 131/146/131 50/51/50 84/89/84 
f 87/92/87 133/148/133 152/172/152 153/173/153 
f 87/92/87 153/173/153 154/174/154 88/93/88 
f 154/174/154 153/173/153 13/13/13 15/15/15 
f 154/175/154 15/176/15 155/177/155 134/149/134 
f 154/175/154 134/149/134 89/96/89 88/95/88 
f 155/177/155 15/176/15 12/178/12 11/179/11 
f 155/177/155 11/179/11 141/161/141 137/152/137 
f 155/177/155 137/152/137 135/150/135 134/149/134 
f 153/173/153 152/172/152 14/14/14 13/13/13 
f 152/172/152 146/164/146 144/162/144 14/14/14 
f 152/172/152 133/148/133 132/147/132 146/164/146 
f 144/162/144 142/159/142 10/10/10 14/14/14 
f 142/159/142 141/158/141 11/11/11 10/10/10 
f 122/131/122 61/133/61 8/8/8 7/7/7 
f 151/171/151 53/54/53 52/53/52 85/90/85 
f 151/171/151 85/90/85 49/50/49 120/129/120 
f 150/170/150 45/46/45 44/45/44 86/91/86 
f 150/168/150 86/94/86 90/97/90 149/167/149 
f 90/97/90 41/42/41 116/125/116 149/167/149 
f 71/73/71 70/72/70 3/3/3 2/2/2 
f 34/35/34 21/21/21 20/20/20 29/30/29 
f 128/143/128 81/86/81 60/61/60 156/180/156 
f 128/143/128 156/180/156 78/83/78 77/82/77 
f 78/83/78 156/180/156 60/61/60 59/60/59 
f 148/166/148 112/121/112 38/39/38 37/38/37 
f 51/52/51 56/57/56 58/59/58 52/53/52 
# 154 polygons

