# 3ds Max Wavefront OBJ Exporter v0.97b - (c)2007 guruware
# File Created: 31.10.2015 02:56:55

mtllib Wooden_Planks_Roof_1_UVEdMAXFILE.mtl

#
# object Plank_roof_1_remesh_Plank_roof_1_remesh_Group63832
#

v  26.1680 21.2259 -41.9300
v  26.3766 20.8440 -42.3463
v  25.9363 20.6862 -42.6238
v  25.8580 21.2182 -41.9375
v  26.2122 21.7587 -41.1255
v  26.5534 21.7476 -41.2476
v  24.8107 31.5475 -25.7337
v  26.1766 31.7378 -25.2393
v  26.1831 31.4559 -25.6227
v  26.0422 31.3438 -26.0620
v  21.9120 17.6519 -46.6657
v  22.3675 17.7147 -46.7525
v  22.3522 17.3424 -46.5177
v  21.9169 17.4554 -46.5677
v  26.7104 17.6478 -46.7102
v  26.7522 17.3239 -46.4910
v  26.3350 17.3760 -46.4464
v  26.4058 17.7071 -46.7476
v  21.9115 20.8060 -41.9001
v  22.0818 20.7148 -42.1723
v  22.0672 20.2991 -42.7955
v  21.9117 20.2938 -42.3820
v  22.2504 21.2613 -41.3236
v  22.3699 20.8150 -41.9771
v  21.9113 21.0543 -41.2716
v  23.6064 29.9379 -28.0017
v  23.5914 29.4134 -28.8439
v  22.8909 29.4088 -28.8316
v  22.9709 29.9945 -28.0614
v  24.1415 29.8798 -28.2624
v  24.1113 29.3888 -28.9332
v  26.5531 31.7823 -25.2240
v  26.4850 31.5670 -25.7034
v  26.4046 31.3837 -26.2260
v  21.9566 36.1754 -17.9218
v  22.1940 35.9486 -18.3531
v  21.9547 35.7398 -18.2081
v  22.0951 35.9691 -17.7917
v  22.5596 36.0407 -18.0374
v  22.5843 35.9653 -17.7894
v  23.0144 35.9844 -17.8014
v  22.9710 36.1320 -18.0655
v  22.9392 36.0336 -18.3785
v  22.5979 35.9001 -18.3115
v  23.6991 29.4166 -27.8452
v  23.8050 29.5684 -27.6381
v  23.5838 29.6401 -27.2984
v  23.2757 29.5844 -27.6179
v  23.9768 29.1495 -28.3240
v  24.1502 29.6283 -27.7300
v  23.3749 29.0904 -28.3569
v  23.7793 30.0693 -26.7653
v  25.7119 30.6104 -26.8685
v  26.0281 30.5447 -26.8567
v  26.0146 30.7517 -26.2581
v  25.6711 30.8459 -26.3559
v  25.3004 29.5033 -28.1127
v  25.8145 29.4561 -28.1267
v  25.2726 30.7838 -26.5441
v  25.9773 31.0133 -25.6618
v  25.6250 31.1446 -25.7185
v  25.1124 31.1001 -25.7769
v  26.7239 35.7835 -17.6756
v  26.7590 35.5838 -17.9496
v  26.7547 35.9797 -18.1590
v  26.6988 35.9600 -17.7860
v  26.2109 35.7365 -17.8564
v  26.2847 35.5937 -18.0735
v  26.2450 36.0449 -17.8395
v  22.0634 35.7429 -17.7314
v  22.1424 35.4975 -18.0812
v  22.4402 35.4949 -18.1385
v  22.6205 35.5917 -17.8509
v  26.2494 36.0273 -18.2815
v  23.0722 35.6548 -18.0206
v  22.3741 20.3161 -42.7442
v  22.8514 20.8495 -41.8321
v  23.1246 20.2857 -42.7238
v  23.7931 20.9764 -41.7239
v  23.9225 20.4655 -42.6611
v  22.7673 21.2699 -41.1020
v  23.6648 21.4147 -41.0506
v  24.3812 21.5385 -40.9889
v  24.3838 21.0767 -41.6905
v  25.0408 21.6982 -41.0420
v  24.6688 29.4481 -28.9498
v  25.7490 29.2949 -29.0053
v  25.8462 21.7702 -41.0773
v  26.2328 29.2597 -29.0626
v  25.1782 29.0482 -28.6009
v  25.8299 28.8790 -28.6826
v  26.3140 28.8497 -28.7966
v  26.2843 29.4502 -28.1147
v  26.7168 29.2944 -28.0244
v  26.7435 30.3526 -26.5736
v  26.4317 30.5621 -26.8375
v  26.7531 30.6942 -26.0689
v  26.3977 30.7801 -26.2402
v  26.4998 31.1095 -25.5761
v  26.2879 31.0260 -25.6459
v  26.5805 30.6789 -26.8067
v  26.6347 31.0763 -26.2080
v  26.7477 31.3181 -25.6474
v  26.7588 31.5288 -25.0333
v  26.3348 31.3200 -24.9308
v  25.6615 35.4963 -18.0153
v  25.6850 31.4657 -24.8639
v  24.6082 35.5269 -17.9805
v  24.9367 31.3595 -25.0062
v  23.3992 34.9457 -20.2658
v  23.4329 36.1101 -17.9851
v  23.4292 35.5793 -17.9446
v  23.1570 31.0001 -25.0268
v  23.6913 31.0553 -24.9856
v  23.3509 30.4576 -25.7978
v  23.8521 30.5186 -25.8317
v  22.8077 30.9622 -25.0574
v  22.4652 31.0331 -25.0781
v  22.1238 31.0241 -25.0260
v  21.9372 31.1839 -25.1440
v  22.0539 31.4335 -25.3640
v  22.4121 31.3864 -25.3467
v  22.7978 31.2957 -25.3250
v  23.2848 31.3881 -25.4358
v  25.0749 35.8923 -18.2288
v  24.4372 31.5283 -25.6229
v  24.6394 35.9458 -18.2607
v  23.3469 30.8231 -26.2351
v  22.7671 30.8066 -26.1710
v  22.3535 30.8081 -26.1610
v  21.9720 30.8501 -26.1705
v  21.8699 30.5575 -25.9745
v  22.0860 30.4445 -25.8903
v  22.4634 30.4023 -25.8372
v  22.9394 30.4523 -25.8078
v  22.5975 29.5802 -27.7055
v  22.1959 29.4893 -27.7544
v  22.3095 29.0840 -28.3719
v  22.8102 29.2128 -28.3814
v  21.8798 29.4994 -27.8316
v  22.0098 29.8516 -28.0476
v  21.9861 29.5147 -28.7999
v  21.9027 29.1532 -28.5166
v  22.4520 29.9531 -28.1006
v  22.4347 29.5386 -28.8649
v  26.7458 28.7768 -28.7828
v  26.4364 21.2285 -41.0449
v  26.7559 21.4154 -41.1317
v  26.6387 29.1876 -28.9930
v  24.9504 21.1998 -41.7524
v  25.0003 20.5842 -42.5819
v  24.3742 20.5221 -42.6256
v  24.0861 17.8841 -46.8588
v  23.6514 17.8721 -46.8514
v  23.0102 17.7624 -46.7824
v  22.1949 19.9799 -42.3577
v  22.6946 19.9426 -42.3395
v  22.6988 20.6845 -41.1641
v  22.1678 20.7961 -41.1817
v  26.5185 29.6171 -28.2447
v  26.1639 29.8595 -28.4501
v  26.3007 31.0071 -26.9242
v  25.7009 29.8693 -28.4129
v  25.9144 31.0727 -26.8852
v  25.2319 29.8310 -28.2182
v  25.1340 31.2119 -26.7568
v  24.3958 31.0673 -26.4685
v  24.7464 20.9288 -40.9805
v  25.6722 21.1583 -41.0179
v  26.0106 21.2182 -41.0424
v  26.5006 20.4452 -42.0154
v  26.7570 20.6932 -42.2086
v  25.9030 17.7340 -46.7646
v  24.6240 17.9314 -46.8886
v  23.7025 17.4899 -46.5862
v  23.0366 17.3727 -46.5367
v  23.5923 19.9596 -42.3004
v  24.1163 17.5082 -46.5990
v  24.1489 20.0935 -42.3124
v  24.1261 20.9084 -41.0990
v  23.4886 20.7189 -41.1323
v  25.6598 20.4084 -42.0676
v  26.0476 20.4875 -42.0839
v  25.8222 17.3618 -46.4725
v  24.6350 17.5103 -46.6232
v  24.7968 20.1412 -42.1698
v  25.1105 35.6799 -17.6095
v  24.6220 35.7411 -17.6481
v  25.1054 36.0432 -17.8385
v  24.6519 36.0863 -17.8693
v  23.4188 35.8755 -17.7327
v  24.7358 30.7020 -26.4051
v  26.2437 31.1241 -25.1226
v  25.9521 31.2489 -25.1381
v  24.7213 30.8345 -25.6705
# 195 vertices

vn 0.0384 0.7947 -0.6057
vn 0.3097 0.7568 -0.5756
vn -0.0157 0.8010 -0.5984
vn -0.0652 0.8120 -0.5800
vn -0.1041 0.8384 -0.5349
vn 0.4377 0.7321 -0.5219
vn -0.0840 0.8920 -0.4441
vn -0.0003 0.8374 -0.5466
vn -0.1215 0.9091 -0.3984
vn -0.0446 0.9548 -0.2937
vn -0.6587 0.1380 -0.7397
vn -0.1282 0.2113 -0.9690
vn -0.1085 -0.9775 -0.1807
vn -0.6380 -0.7241 -0.2621
vn 0.5764 0.0701 -0.8141
vn 0.5561 -0.8091 -0.1902
vn -0.0416 -0.9940 -0.1016
vn 0.0992 0.1356 -0.9858
vn -0.8084 0.5108 -0.2927
vn -0.1640 0.8289 -0.5348
vn -0.4401 0.7484 -0.4962
vn -0.9827 -0.1753 0.0589
vn -0.1549 0.8478 -0.5072
vn 0.0940 0.8321 -0.5465
vn -0.9933 0.1151 0.0130
vn -0.0574 0.8553 -0.5149
vn -0.0346 0.8421 -0.5381
vn 0.1200 0.8302 -0.5445
vn 0.0503 0.8639 -0.5012
vn -0.0811 0.8288 -0.5537
vn -0.0898 0.8282 -0.5532
vn 0.4144 0.7916 -0.4490
vn 0.1754 0.9050 -0.3877
vn 0.2617 0.8675 -0.4231
vn -0.6158 0.7367 0.2795
vn -0.2627 0.8062 -0.5302
vn -0.9981 0.0113 -0.0601
vn -0.4107 0.3927 0.8229
vn -0.0353 0.9992 -0.0193
vn 0.0460 0.5445 0.8375
vn 0.0385 0.3845 0.9223
vn -0.0265 0.9981 0.0565
vn 0.0826 0.9020 -0.4237
vn -0.1378 0.8507 -0.5073
vn 0.0617 -0.8590 0.5082
vn 0.3135 -0.8193 0.4801
vn 0.1118 -0.8938 0.4342
vn -0.1097 -0.8854 0.4517
vn 0.0876 -0.8233 0.5609
vn 0.2070 -0.8025 0.5595
vn -0.0652 -0.8470 0.5275
vn 0.5415 -0.7534 0.3730
vn -0.0727 -0.8309 0.5516
vn -0.0821 -0.8535 0.5146
vn -0.1368 -0.9188 0.3702
vn -0.1897 -0.9016 0.3888
vn 0.0293 -0.7517 0.6589
vn -0.0256 -0.7342 0.6785
vn 0.1285 -0.8575 0.4981
vn -0.2097 -0.9128 0.3505
vn -0.1620 -0.9091 0.3838
vn 0.2265 -0.8884 0.3992
vn 0.4843 -0.1711 0.8580
vn 0.6543 -0.6082 0.4494
vn 0.6993 0.7043 -0.1227
vn 0.5244 0.7169 0.4594
vn -0.0360 -0.4938 0.8688
vn 0.0055 -0.8380 0.5456
vn -0.0551 0.7760 0.6283
vn -0.5536 -0.2709 0.7875
vn -0.3932 -0.7791 0.4883
vn -0.1445 -0.8460 0.5132
vn 0.0909 -0.6293 0.7719
vn 0.0306 0.9541 -0.2980
vn 0.0131 -0.7168 0.6972
vn 0.0501 0.8409 -0.5389
vn 0.0159 0.8496 -0.5272
vn -0.0568 0.8427 -0.5353
vn -0.0813 0.8477 -0.5242
vn -0.0952 0.8525 -0.5141
vn 0.0571 0.8485 -0.5260
vn -0.0945 0.8342 -0.5433
vn -0.1681 0.8233 -0.5422
vn -0.1727 0.8341 -0.5239
vn -0.1671 0.8261 -0.5381
vn 0.0051 0.8437 -0.5368
vn 0.0025 0.8045 -0.5939
vn -0.0698 0.8418 -0.5353
vn 0.1532 0.8163 -0.5570
vn -0.0164 -0.7895 0.6135
vn -0.0085 -0.7812 0.6242
vn -0.0414 -0.7984 0.6007
vn -0.2007 -0.7606 0.6175
vn 0.7223 -0.5619 0.4033
vn 0.5648 -0.6351 0.5269
vn -0.3613 -0.7801 0.5108
vn 0.6451 -0.7013 0.3033
vn -0.1508 -0.9131 0.3787
vn 0.4388 -0.7738 0.4568
vn 0.1373 -0.9410 0.3093
vn 0.8568 0.3984 -0.3273
vn 0.8602 0.3851 -0.3342
vn 0.9974 0.0634 0.0340
vn 0.9580 -0.2699 0.0973
vn 0.2309 -0.8289 0.5096
vn 0.1065 -0.8375 0.5359
vn -0.0777 -0.8840 0.4609
vn -0.0507 -0.8449 0.5326
vn 0.1406 -0.8939 0.4257
vn -0.0862 0.8455 -0.5271
vn 0.0109 0.9884 0.1512
vn -0.1448 -0.7139 0.6851
vn 0.0361 -0.8268 0.5614
vn 0.1482 -0.8367 0.5273
vn 0.0613 -0.8477 0.5270
vn 0.3260 -0.8028 0.4992
vn -0.0847 -0.8327 0.5472
vn -0.0280 -0.8179 0.5747
vn -0.3587 -0.7634 0.5371
vn -0.9785 -0.1577 0.1328
vn -0.5057 0.7209 -0.4738
vn 0.1761 0.8108 -0.5582
vn -0.0463 0.8387 -0.5427
vn -0.2285 0.8151 -0.5323
vn 0.0324 0.9053 -0.4234
vn -0.1730 0.8529 -0.4926
vn -0.0123 0.9173 -0.3981
vn -0.1893 0.8332 -0.5195
vn -0.0499 0.8781 -0.4758
vn 0.0528 0.8677 -0.4942
vn -0.5824 0.7007 -0.4121
vn -0.9289 -0.3034 0.2125
vn -0.3741 -0.7934 0.4801
vn -0.0322 -0.8549 0.5177
vn 0.0032 -0.8540 0.5202
vn 0.0492 -0.8798 0.4727
vn -0.0294 -0.8638 0.5029
vn -0.0320 -0.8495 0.5265
vn -0.0097 -0.8607 0.5090
vn -0.8468 -0.4557 0.2742
vn -0.6822 0.6663 -0.3011
vn -0.6769 0.6336 -0.3746
vn -0.8680 -0.4373 0.2352
vn -0.1041 0.8841 -0.4556
vn 0.0760 0.8538 -0.5150
vn 0.7267 -0.5271 0.4406
vn 0.2859 -0.7779 0.5596
vn 0.9841 -0.1636 0.0693
vn 0.7190 0.6222 -0.3097
vn -0.1713 0.8145 -0.5543
vn -0.0709 0.8139 -0.5766
vn -0.0760 0.8480 -0.5245
vn -0.0545 0.1973 -0.9788
vn -0.0851 0.2288 -0.9698
vn -0.0842 0.1955 -0.9771
vn -0.4208 -0.7692 0.4808
vn -0.0456 -0.8493 0.5260
vn -0.0822 -0.8320 0.5486
vn -0.4806 -0.7284 0.4882
vn 0.7887 0.4974 -0.3612
vn 0.3202 0.7189 -0.6170
vn 0.4183 0.7587 -0.4994
vn -0.1823 0.7426 -0.6445
vn 0.0633 0.8663 -0.4955
vn -0.0979 0.8054 -0.5846
vn -0.1226 0.8502 -0.5120
vn -0.2638 0.8222 -0.5043
vn 0.0740 -0.8347 0.5457
vn 0.1999 -0.8133 0.5464
vn 0.0922 -0.8205 0.5642
vn 0.3466 -0.7616 0.5475
vn 0.9779 0.1792 -0.1075
vn 0.0790 0.1207 -0.9895
vn 0.0335 0.2587 -0.9654
vn 0.0863 -0.9670 -0.2399
vn 0.0860 -0.9727 -0.2155
vn 0.1078 -0.8413 0.5297
vn 0.0194 -0.9770 -0.2124
vn 0.0788 -0.8423 0.5333
vn 0.0687 -0.8336 0.5480
vn 0.1110 -0.8285 0.5490
vn 0.1843 -0.8030 0.5668
vn 0.0134 -0.8198 0.5724
vn -0.0298 -0.9889 -0.1459
vn -0.0380 -0.9616 -0.2719
vn 0.0557 -0.8323 0.5515
vn 0.0489 -0.2782 0.9593
vn -0.0968 -0.2021 0.9746
vn 0.0760 0.9328 0.3524
vn 0.0338 0.9567 0.2893
vn -0.1314 0.0609 0.9895
vn 0.3008 -0.8433 0.4454
vn 0.1014 -0.8494 0.5178
vn -0.2982 -0.8381 0.4568
vn 0.3342 -0.8065 0.4876
# 195 vertex normals

vt 0.1922 0.1370 0.0000
vt 0.1772 0.1433 0.0000
vt 0.1685 0.1304 0.0000
vt 0.1919 0.1283 0.0000
vt 0.2184 0.1379 0.0000
vt 0.2155 0.1473 0.0000
vt 0.7212 0.1041 0.0000
vt 0.7342 0.1447 0.0000
vt 0.7215 0.1449 0.0000
vt 0.7097 0.1399 0.0000
vt 0.0170 0.0279 0.0000
vt 0.0203 0.0402 0.0000
vt 0.0084 0.0412 0.0000
vt 0.0107 0.0291 0.0000
vt 0.0342 0.1505 0.0000
vt 0.0303 0.1586 0.0000
vt 0.0215 0.1473 0.0000
vt 0.0332 0.1435 0.0000
vt 0.1833 0.0183 0.0000
vt 0.1756 0.0230 0.0000
vt 0.1547 0.0217 0.0000
vt 0.1641 0.0138 0.0000
vt 0.2042 0.0264 0.0000
vt 0.1822 0.0306 0.0000
vt 0.2017 0.0153 0.0000
vt 0.6452 0.0689 0.0000
vt 0.6175 0.0681 0.0000
vt 0.6181 0.0488 0.0000
vt 0.6449 0.0511 0.0000
vt 0.6377 0.0841 0.0000
vt 0.6148 0.0825 0.0000
vt 0.7349 0.1558 0.0000
vt 0.7201 0.1541 0.0000
vt 0.7055 0.1498 0.0000
vt 0.9763 0.3029 0.0000
vt 0.9642 0.3128 0.0000
vt 0.9614 0.3038 0.0000
vt 0.9738 0.2957 0.0000
vt 0.9772 0.0597 0.0000
vt 0.9838 0.0632 0.0000
vt 0.9816 0.0736 0.0000
vt 0.9738 0.0706 0.0000
vt 0.9656 0.0674 0.0000
vt 0.9684 0.0578 0.0000
vt 0.9716 0.0471 0.0000
vt 0.9869 0.0453 0.0000
vt 0.9898 0.0524 0.0000
vt 0.6378 0.2558 0.0000
vt 0.6449 0.2528 0.0000
vt 0.6540 0.2596 0.0000
vt 0.6453 0.2680 0.0000
vt 0.6226 0.2477 0.0000
vt 0.6436 0.2427 0.0000
vt 0.6208 0.2644 0.0000
vt 0.6728 0.2543 0.0000
vt 0.6785 0.1993 0.0000
vt 0.6777 0.1907 0.0000
vt 0.6952 0.1902 0.0000
vt 0.6939 0.2002 0.0000
vt 0.6330 0.2099 0.0000
vt 0.6320 0.1953 0.0000
vt 0.6884 0.2112 0.0000
vt 0.7131 0.1900 0.0000
vt 0.7131 0.2008 0.0000
vt 0.7113 0.2149 0.0000
vt 0.9657 0.1728 0.0000
vt 0.9558 0.1746 0.0000
vt 0.9540 0.1652 0.0000
vt 0.9628 0.1676 0.0000
vt 0.9608 0.1876 0.0000
vt 0.9535 0.1862 0.0000
vt 0.9658 0.1560 0.0000
vt 0.9739 0.1581 0.0000
vt 0.9685 0.2942 0.0000
vt 0.9580 0.2952 0.0000
vt 0.9554 0.2876 0.0000
vt 0.9628 0.2815 0.0000
vt 0.9734 0.2809 0.0000
vt 0.9542 0.1529 0.0000
vt 0.9597 0.2693 0.0000
vt 0.9709 0.2696 0.0000
vt 0.1564 0.0302 0.0000
vt 0.1866 0.0437 0.0000
vt 0.1576 0.0510 0.0000
vt 0.1919 0.0698 0.0000
vt 0.1627 0.0734 0.0000
vt 0.2098 0.0412 0.0000
vt 0.2140 0.0662 0.0000
vt 0.2177 0.0863 0.0000
vt 0.1946 0.0862 0.0000
vt 0.2191 0.1052 0.0000
vt 0.6148 0.0980 0.0000
vt 0.6103 0.1301 0.0000
vt 0.2196 0.1277 0.0000
vt 0.6081 0.1437 0.0000
vt 0.6148 0.2131 0.0000
vt 0.6103 0.1949 0.0000
vt 0.6075 0.1813 0.0000
vt 0.6323 0.1820 0.0000
vt 0.6316 0.1685 0.0000
vt 0.6812 0.1685 0.0000
vt 0.6783 0.1802 0.0000
vt 0.6976 0.1694 0.0000
vt 0.6955 0.1798 0.0000
vt 0.7161 0.1743 0.0000
vt 0.7135 0.1810 0.0000
vt 0.6814 0.1570 0.0000
vt 0.7010 0.1589 0.0000
vt 0.7177 0.1646 0.0000
vt 0.7357 0.1668 0.0000
vt 0.7348 0.1805 0.0000
vt 0.9534 0.2021 0.0000
vt 0.7380 0.1999 0.0000
vt 0.9553 0.2295 0.0000
vt 0.7330 0.2214 0.0000
vt 0.9028 0.0699 0.0000
vt 0.9732 0.0828 0.0000
vt 0.9590 0.2596 0.0000
vt 0.7273 0.2727 0.0000
vt 0.7291 0.2578 0.0000
vt 0.7013 0.2672 0.0000
vt 0.7014 0.2535 0.0000
vt 0.7260 0.2824 0.0000
vt 0.7267 0.2922 0.0000
vt 0.7276 0.3018 0.0000
vt 0.7273 0.3094 0.0000
vt 0.7264 0.3190 0.0000
vt 0.7313 0.0266 0.0000
vt 0.7306 0.0365 0.0000
vt 0.7291 0.0472 0.0000
vt 0.7275 0.0611 0.0000
vt 0.9582 0.1234 0.0000
vt 0.7239 0.0936 0.0000
vt 0.9593 0.1119 0.0000
vt 0.7003 0.0617 0.0000
vt 0.7021 0.0458 0.0000
vt 0.7028 0.0345 0.0000
vt 0.7035 0.0240 0.0000
vt 0.6982 0.3188 0.0000
vt 0.6982 0.3089 0.0000
vt 0.6987 0.3019 0.0000
vt 0.6994 0.2914 0.0000
vt 0.7010 0.2785 0.0000
vt 0.6429 0.2867 0.0000
vt 0.6407 0.2979 0.0000
vt 0.6202 0.2947 0.0000
vt 0.6218 0.2805 0.0000
vt 0.6390 0.3068 0.0000
vt 0.6380 0.3187 0.0000
vt 0.6155 0.3191 0.0000
vt 0.6175 0.3064 0.0000
vt 0.6442 0.0242 0.0000
vt 0.6437 0.0367 0.0000
vt 0.6197 0.0358 0.0000
vt 0.6213 0.0233 0.0000
vt 0.6066 0.1690 0.0000
vt 0.2119 0.1690 0.0000
vt 0.2129 0.1583 0.0000
vt 0.6075 0.1557 0.0000
vt 0.1954 0.1025 0.0000
vt 0.1673 0.1037 0.0000
vt 0.1649 0.0860 0.0000
vt 0.0277 0.0846 0.0000
vt 0.0267 0.0736 0.0000
vt 0.0236 0.0569 0.0000
vt 0.0162 0.2873 0.0000
vt 0.0181 0.2814 0.0000
vt 0.1602 0.3006 0.0000
vt 0.1491 0.3077 0.0000
vt 0.0203 0.2695 0.0000
vt 0.1569 0.2895 0.0000
vt 0.1580 0.2754 0.0000
vt 0.1969 0.2758 0.0000
vt 0.1975 0.2907 0.0000
vt 0.1989 0.3009 0.0000
vt 0.6318 0.1559 0.0000
vt 0.6320 0.1422 0.0000
vt 0.6840 0.1452 0.0000
vt 0.6330 0.1290 0.0000
vt 0.6862 0.1348 0.0000
vt 0.6364 0.1150 0.0000
vt 0.6918 0.1134 0.0000
vt 0.6973 0.0919 0.0000
vt 0.2076 0.2178 0.0000
vt 0.2110 0.1908 0.0000
vt 0.2115 0.1810 0.0000
vt 0.1778 0.1671 0.0000
vt 0.1776 0.1556 0.0000
vt 0.0311 0.1313 0.0000
vt 0.0298 0.0981 0.0000
vt 0.0142 0.0759 0.0000
vt 0.0109 0.0589 0.0000
vt 0.0236 0.2523 0.0000
vt 0.0264 0.2357 0.0000
vt 0.1612 0.2503 0.0000
vt 0.0275 0.2256 0.0000
vt 0.1639 0.2344 0.0000
vt 0.2038 0.2354 0.0000
vt 0.1994 0.2537 0.0000
vt 0.1758 0.1911 0.0000
vt 0.1769 0.1800 0.0000
vt 0.0307 0.1830 0.0000
vt 0.0318 0.1700 0.0000
vt 0.0281 0.2128 0.0000
vt 0.1689 0.2162 0.0000
vt 0.0165 0.1007 0.0000
vt 0.0153 0.0869 0.0000
vt 0.0180 0.1330 0.0000
vt 0.9658 0.2160 0.0000
vt 0.9662 0.2284 0.0000
vt 0.9815 0.1282 0.0000
vt 0.9697 0.1262 0.0000
vt 0.9704 0.1143 0.0000
vt 0.9817 0.1157 0.0000
vt 0.9826 0.0845 0.0000
vt 0.9690 0.2590 0.0000
vt 0.6904 0.2263 0.0000
vt 0.7275 0.1832 0.0000
vt 0.7288 0.1916 0.0000
vt 0.7104 0.2277 0.0000
# 220 texture coords

g Plank_roof_1_remesh_Plank_roof_1_remesh_Group63832
usemtl defaultMat
s 1
f 1/1/1 2/2/2 3/3/3 4/4/4 
f 1/1/1 5/5/5 6/6/6 2/2/2 
f 7/7/7 8/8/8 9/9/9 10/10/10 
f 11/11/11 12/12/12 13/13/13 14/14/14 
f 15/15/15 16/16/16 17/17/17 18/18/18 
f 19/19/19 20/20/20 21/21/21 22/22/22 
f 23/23/23 24/24/24 20/20/20 19/19/19 
f 19/19/19 22/22/22 25/25/25 23/23/23 
f 26/26/26 27/27/27 28/28/28 29/29/29 
f 26/26/26 30/30/30 31/31/31 27/27/27 
f 9/9/9 8/8/8 32/32/32 33/33/33 
f 9/9/9 33/33/33 34/34/34 10/10/10 
f 35/35/35 36/36/36 37/37/37 38/38/38 
f 39/39/39 40/40/40 41/41/41 42/42/42 
f 39/39/39 42/42/42 43/43/43 44/44/44 
f 39/39/39 44/44/44 36/45/36 35/46/35 
f 39/39/39 35/46/35 38/47/38 40/40/40 
f 45/48/45 46/49/46 47/50/47 48/51/48 
f 49/52/49 50/53/50 46/49/46 45/48/45 
f 45/48/45 48/51/48 51/54/51 49/52/49 
f 46/49/46 50/53/50 52/55/52 47/50/47 
f 53/56/53 54/57/54 55/58/55 56/59/56 
f 57/60/57 58/61/58 54/57/54 53/56/53 
f 53/56/53 56/59/56 59/62/59 57/60/57 
f 56/59/56 55/58/55 60/63/60 61/64/61 
f 56/59/56 61/64/61 62/65/62 59/62/59 
f 63/66/63 64/67/64 65/68/65 66/69/66 
f 63/66/63 67/70/67 68/71/68 64/67/64 
f 63/66/63 66/69/66 69/72/69 67/73/67 
f 70/74/70 71/75/71 72/76/72 73/77/73 
f 70/74/70 73/77/73 40/78/40 38/38/38 
f 70/74/70 38/38/38 37/37/37 71/75/71 
f 66/69/66 65/68/65 74/79/74 69/72/69 
f 73/77/73 75/80/75 41/81/41 40/78/40 
f 20/20/20 24/24/24 76/82/76 21/21/21 
f 76/82/76 24/24/24 77/83/77 78/84/78 
f 77/83/77 79/85/79 80/86/80 78/84/78 
f 77/83/77 24/24/24 23/23/23 81/87/81 
f 77/83/77 81/87/81 82/88/82 79/85/79 
f 82/88/82 83/89/83 84/90/84 79/85/79 
f 85/91/85 86/92/86 87/93/87 88/94/88 
f 87/93/87 89/95/89 5/5/5 88/94/88 
f 49/52/49 90/96/90 57/60/57 50/53/50 
f 57/60/57 90/96/90 91/97/91 58/61/58 
f 58/61/58 91/97/91 92/98/92 93/99/93 
f 93/99/93 94/100/94 95/101/95 96/102/96 
f 93/99/93 96/102/96 54/57/54 58/61/58 
f 96/102/96 95/101/95 97/103/97 98/104/98 
f 96/102/96 98/104/98 55/58/55 54/57/54 
f 98/104/98 97/103/97 99/105/99 100/106/100 
f 98/104/98 100/106/100 60/63/60 55/58/55 
f 97/103/97 95/101/95 101/107/101 102/108/102 
f 97/103/97 102/108/102 103/109/103 99/105/99 
f 103/109/103 102/108/102 34/34/34 33/33/33 
f 103/109/103 33/33/33 32/32/32 104/110/104 
f 103/109/103 104/110/104 105/111/105 99/105/99 
f 105/111/105 104/110/104 64/67/64 68/71/68 
f 105/111/105 68/71/68 106/112/106 107/113/107 
f 106/112/106 108/114/108 109/115/109 107/113/107 
f 110/116/110 43/43/43 42/42/42 111/117/111 
f 112/118/112 75/80/75 113/119/113 114/120/114 
f 114/120/114 109/115/109 108/114/108 112/118/112 
f 114/120/114 113/119/113 115/121/115 116/122/116 
f 117/123/117 113/119/113 75/80/75 73/77/73 
f 117/123/117 73/77/73 72/76/72 118/124/118 
f 72/76/72 71/75/71 119/125/119 118/124/118 
f 119/125/119 71/75/71 37/37/37 120/126/120 
f 37/37/37 36/36/36 121/127/121 120/126/120 
f 121/128/121 36/45/36 44/44/44 122/129/122 
f 44/44/44 43/43/43 123/130/123 122/129/122 
f 123/130/123 43/43/43 110/116/110 124/131/124 
f 125/132/125 7/7/7 126/133/126 127/134/127 
f 126/133/126 124/131/124 110/116/110 127/134/127 
f 124/131/124 128/135/128 129/136/129 123/130/123 
f 123/130/123 129/136/129 130/137/130 122/129/122 
f 122/129/122 130/137/130 131/138/131 121/128/121 
f 121/127/121 131/139/131 132/140/132 120/126/120 
f 120/126/120 132/140/132 133/141/133 119/125/119 
f 119/125/119 133/141/133 134/142/134 118/124/118 
f 118/124/118 134/142/134 135/143/135 117/123/117 
f 135/143/135 134/142/134 136/144/136 48/51/48 
f 135/143/135 48/51/48 47/50/47 115/121/115 
f 135/143/135 115/121/115 113/119/113 117/123/117 
f 47/50/47 52/55/52 116/122/116 115/121/115 
f 136/144/136 137/145/137 138/146/138 139/147/139 
f 136/144/136 139/147/139 51/54/51 48/51/48 
f 137/145/137 136/144/136 134/142/134 133/141/133 
f 137/145/137 133/141/133 132/140/132 140/148/140 
f 140/148/140 141/149/141 142/150/142 143/151/143 
f 140/148/140 143/151/143 138/146/138 137/145/137 
f 141/149/141 140/148/140 132/140/132 131/139/131 
f 141/152/141 131/138/131 130/137/130 144/153/144 
f 144/153/144 29/29/29 28/28/28 145/154/145 
f 144/153/144 145/154/145 142/155/142 141/152/141 
f 146/156/146 92/98/92 147/157/147 148/158/148 
f 146/156/146 148/158/148 6/6/6 149/159/149 
f 6/6/6 5/5/5 89/95/89 149/159/149 
f 85/91/85 88/94/88 4/4/4 150/160/150 
f 150/160/150 151/161/151 152/162/152 84/90/84 
f 150/160/150 84/90/84 83/89/83 85/91/85 
f 152/162/152 80/86/80 79/85/79 84/90/84 
f 80/86/80 152/162/152 153/163/153 154/164/154 
f 80/86/80 154/164/154 155/165/155 78/84/78 
f 155/165/155 12/12/12 76/82/76 78/84/78 
f 12/12/12 11/11/11 21/21/21 76/82/76 
f 11/166/11 14/167/14 22/168/22 21/169/21 
f 22/168/22 14/167/14 13/170/13 156/171/156 
f 156/171/156 157/172/157 158/173/158 159/174/159 
f 156/171/156 159/174/159 25/175/25 22/168/22 
f 81/87/81 23/23/23 145/154/145 28/28/28 
f 81/87/81 28/28/28 27/27/27 82/88/82 
f 27/27/27 31/31/31 83/89/83 82/88/82 
f 146/156/146 149/159/149 160/176/160 94/100/94 
f 146/156/146 94/100/94 93/99/93 92/98/92 
f 160/176/160 149/159/149 89/95/89 161/177/161 
f 160/176/160 161/177/161 162/178/162 101/107/101 
f 160/176/160 101/107/101 95/101/95 94/100/94 
f 162/178/162 161/177/161 163/179/163 164/180/164 
f 162/178/162 164/180/164 10/10/10 34/34/34 
f 162/178/162 34/34/34 102/108/102 101/107/101 
f 164/180/164 163/179/163 165/181/165 166/182/166 
f 164/180/164 166/182/166 7/7/7 10/10/10 
f 7/7/7 166/182/166 167/183/167 126/133/126 
f 167/183/167 166/182/166 165/181/165 30/30/30 
f 167/183/167 30/30/30 26/26/26 128/135/128 
f 167/183/167 128/135/128 124/131/124 126/133/126 
f 165/181/165 163/179/163 87/93/87 86/92/86 
f 86/92/86 31/31/31 30/30/30 165/181/165 
f 90/96/90 49/52/49 168/184/168 169/185/169 
f 90/96/90 169/185/169 170/186/170 91/97/91 
f 170/186/170 147/157/147 92/98/92 91/97/91 
f 148/158/148 147/157/147 171/187/171 172/188/172 
f 148/158/148 172/188/172 2/2/2 6/6/6 
f 172/188/172 171/187/171 16/16/16 15/15/15 
f 172/188/172 15/15/15 18/18/18 2/2/2 
f 18/18/18 173/189/173 3/3/3 2/2/2 
f 173/189/173 174/190/174 151/161/151 3/3/3 
f 174/190/174 153/163/153 152/162/152 151/161/151 
f 155/165/155 154/164/154 175/191/175 176/192/176 
f 155/165/155 176/192/176 13/13/13 12/12/12 
f 176/193/176 175/194/175 177/195/177 157/172/157 
f 176/193/176 157/172/157 156/171/156 13/170/13 
f 177/195/177 175/194/175 178/196/178 179/197/179 
f 177/195/177 179/197/179 180/198/180 181/199/181 
f 177/195/177 181/199/181 158/173/158 157/172/157 
f 159/174/159 158/173/158 138/146/138 143/151/143 
f 159/174/159 143/151/143 142/150/142 25/175/25 
f 142/155/142 145/154/145 23/23/23 25/25/25 
f 51/54/51 139/147/139 181/199/181 180/198/180 
f 51/54/51 180/198/180 168/184/168 49/52/49 
f 170/186/170 169/185/169 182/200/182 183/201/183 
f 170/186/170 183/201/183 171/187/171 147/157/147 
f 183/201/183 182/200/182 184/202/184 17/203/17 
f 183/201/183 17/203/17 16/16/16 171/187/171 
f 185/204/185 186/205/186 179/197/179 178/196/178 
f 186/205/186 168/184/168 180/198/180 179/197/179 
f 186/205/186 182/200/182 169/185/169 168/184/168 
f 186/205/186 185/204/185 184/202/184 182/200/182 
f 185/206/185 178/207/178 153/163/153 174/190/174 
f 174/190/174 173/189/173 184/208/184 185/206/185 
f 173/189/173 18/18/18 17/17/17 184/208/184 
f 178/207/178 175/191/175 154/164/154 153/163/153 
f 139/147/139 138/146/138 158/173/158 181/199/181 
f 87/93/87 163/179/163 161/177/161 89/95/89 
f 31/31/31 86/92/86 85/91/85 83/89/83 
f 151/161/151 150/160/150 4/4/4 3/3/3 
f 88/94/88 5/5/5 1/1/1 4/4/4 
f 144/153/144 130/137/130 129/136/129 29/29/29 
f 129/136/129 128/135/128 26/26/26 29/29/29 
f 125/132/125 74/79/74 8/8/8 7/7/7 
f 106/112/106 68/71/68 67/70/67 187/209/187 
f 187/209/187 188/210/188 108/114/108 106/112/106 
f 187/211/187 189/212/189 190/213/190 188/214/188 
f 190/213/190 111/117/111 191/215/191 188/214/188 
f 190/213/190 189/212/189 125/132/125 127/134/127 
f 190/213/190 127/134/127 110/116/110 111/117/111 
f 125/132/125 189/212/189 69/72/69 74/79/74 
f 191/216/191 112/118/112 108/114/108 188/210/188 
f 112/118/112 191/216/191 41/81/41 75/80/75 
f 191/215/191 111/117/111 42/42/42 41/41/41 
f 189/212/189 187/211/187 67/73/67 69/72/69 
f 65/68/65 64/67/64 104/110/104 32/32/32 
f 65/68/65 32/32/32 8/8/8 74/79/74 
f 107/113/107 109/115/109 62/65/62 61/64/61 
f 57/60/57 59/62/59 192/217/192 50/53/50 
f 52/55/52 50/53/50 192/217/192 116/122/116 
f 60/63/60 100/106/100 193/218/193 194/219/194 
f 99/105/99 105/111/105 193/218/193 100/106/100 
f 194/219/194 193/218/193 105/111/105 107/113/107 
f 61/64/61 60/63/60 194/219/194 107/113/107 
f 62/65/62 109/115/109 114/120/114 195/220/195 
f 114/120/114 116/122/116 192/217/192 195/220/195 
f 192/217/192 59/62/59 62/65/62 195/220/195 
# 193 polygons

